{
    "asset" : {
        "generator" : "Khronos glTF Blender I/O v1.6.16",
        "version" : "2.0"
    },
    "scene" : 0,
    "scenes" : [
        {
            "name" : "Scene",
            "nodes" : [
                0,
                1,
                2
            ]
        }
    ],
    "nodes" : [
        {
            "name" : "Light",
            "rotation" : [
                0.16907575726509094,
                0.7558803558349609,
                -0.27217137813568115,
                0.570947527885437
            ],
            "translation" : [
                4.076245307922363,
                5.903861999511719,
                -1.0054539442062378
            ]
        },
        {
            "name" : "Camera",
            "rotation" : [
                0.483536034822464,
                0.33687159419059753,
                -0.20870360732078552,
                0.7804827094078064
            ],
            "translation" : [
                7.358891487121582,
                4.958309173583984,
                6.925790786743164
            ]
        },
        {
            "mesh" : 0,
            "name" : "Mycrofish 28 Oktober 2021",
            "rotation" : [
                0.7071068286895752,
                0,
                0,
                0.7071067094802856
            ],
            "scale" : [
                0.004999999888241291,
                0.004999999888241291,
                0.004999999888241291
            ]
        }
    ],
    "materials" : [
        {
            "doubleSided" : true,
            "name" : "24,37,248",
            "pbrMetallicRoughness" : {
                "baseColorFactor" : [
                    0.09411799907684326,
                    0.1450980007648468,
                    0.9725490212440491,
                    1
                ],
                "metallicFactor" : 0,
                "roughnessFactor" : 0
            }
        },
        {
            "doubleSided" : true,
            "name" : "191,191,191",
            "pbrMetallicRoughness" : {
                "baseColorFactor" : [
                    0.749019980430603,
                    0.749019980430603,
                    0.749019980430603,
                    1
                ],
                "metallicFactor" : 0,
                "roughnessFactor" : 0.4226497411727905
            }
        },
        {
            "doubleSided" : true,
            "name" : "255,254,246",
            "pbrMetallicRoughness" : {
                "baseColorFactor" : [
                    1,
                    0.9960780143737793,
                    0.9647060036659241,
                    1
                ],
                "metallicFactor" : 0,
                "roughnessFactor" : 0
            }
        },
        {
            "doubleSided" : true,
            "name" : "244,244,244",
            "pbrMetallicRoughness" : {
                "baseColorFactor" : [
                    0.9568629860877991,
                    0.9568629860877991,
                    0.9568629860877991,
                    1
                ],
                "metallicFactor" : 0,
                "roughnessFactor" : 0
            }
        },
        {
            "doubleSided" : true,
            "name" : "231,230,228",
            "pbrMetallicRoughness" : {
                "metallicFactor" : 0
            }
        },
        {
            "doubleSided" : true,
            "name" : "190,188,186",
            "pbrMetallicRoughness" : {
                "baseColorFactor" : [
                    0.7450979948043823,
                    0.7372549772262573,
                    0.7294120192527771,
                    1
                ],
                "metallicFactor" : 0,
                "roughnessFactor" : 0
            }
        },
        {
            "doubleSided" : true,
            "name" : "72,71,61",
            "pbrMetallicRoughness" : {
                "baseColorFactor" : [
                    0.282353013753891,
                    0.2784309983253479,
                    0.23921599984169006,
                    1
                ],
                "metallicFactor" : 0,
                "roughnessFactor" : 0
            }
        },
        {
            "doubleSided" : true,
            "name" : "177,177,177",
            "pbrMetallicRoughness" : {
                "metallicFactor" : 0
            }
        },
        {
            "doubleSided" : true,
            "name" : "42,42,42",
            "pbrMetallicRoughness" : {
                "metallicFactor" : 0
            }
        },
        {
            "doubleSided" : true,
            "name" : "245,245,245",
            "pbrMetallicRoughness" : {
                "baseColorFactor" : [
                    0.9607840180397034,
                    0.9607840180397034,
                    0.9607840180397034,
                    1
                ],
                "metallicFactor" : 0,
                "roughnessFactor" : 0
            }
        },
        {
            "doubleSided" : true,
            "name" : "64,72,70",
            "pbrMetallicRoughness" : {
                "baseColorFactor" : [
                    0.2509799897670746,
                    0.282353013753891,
                    0.274509996175766,
                    1
                ],
                "metallicFactor" : 0,
                "roughnessFactor" : 0
            }
        },
        {
            "doubleSided" : true,
            "name" : "64,55,56",
            "pbrMetallicRoughness" : {
                "metallicFactor" : 0
            }
        }
    ],
    "meshes" : [
        {
            "name" : "Mycrofish 28 Oktober 2021",
            "primitives" : [
                {
                    "attributes" : {
                        "POSITION" : 0,
                        "NORMAL" : 1,
                        "TEXCOORD_0" : 2
                    },
                    "indices" : 3,
                    "material" : 0
                },
                {
                    "attributes" : {
                        "POSITION" : 4,
                        "NORMAL" : 5,
                        "TEXCOORD_0" : 6
                    },
                    "indices" : 7,
                    "material" : 1
                },
                {
                    "attributes" : {
                        "POSITION" : 8,
                        "NORMAL" : 9,
                        "TEXCOORD_0" : 10
                    },
                    "indices" : 11,
                    "material" : 2
                },
                {
                    "attributes" : {
                        "POSITION" : 12,
                        "NORMAL" : 13,
                        "TEXCOORD_0" : 14
                    },
                    "indices" : 15,
                    "material" : 3
                },
                {
                    "attributes" : {
                        "POSITION" : 16,
                        "NORMAL" : 17,
                        "TEXCOORD_0" : 18
                    },
                    "indices" : 19,
                    "material" : 4
                },
                {
                    "attributes" : {
                        "POSITION" : 20,
                        "NORMAL" : 21,
                        "TEXCOORD_0" : 22
                    },
                    "indices" : 23,
                    "material" : 5
                },
                {
                    "attributes" : {
                        "POSITION" : 24,
                        "NORMAL" : 25,
                        "TEXCOORD_0" : 26
                    },
                    "indices" : 27,
                    "material" : 6
                },
                {
                    "attributes" : {
                        "POSITION" : 28,
                        "NORMAL" : 29,
                        "TEXCOORD_0" : 30
                    },
                    "indices" : 31,
                    "material" : 7
                },
                {
                    "attributes" : {
                        "POSITION" : 32,
                        "NORMAL" : 33,
                        "TEXCOORD_0" : 34
                    },
                    "indices" : 35,
                    "material" : 8
                },
                {
                    "attributes" : {
                        "POSITION" : 36,
                        "NORMAL" : 37,
                        "TEXCOORD_0" : 38
                    },
                    "indices" : 39,
                    "material" : 9
                },
                {
                    "attributes" : {
                        "POSITION" : 40,
                        "NORMAL" : 41,
                        "TEXCOORD_0" : 42
                    },
                    "indices" : 43,
                    "material" : 10
                },
                {
                    "attributes" : {
                        "POSITION" : 44,
                        "NORMAL" : 45,
                        "TEXCOORD_0" : 46
                    },
                    "indices" : 47,
                    "material" : 11
                }
            ]
        }
    ],
    "accessors" : [
        {
            "bufferView" : 0,
            "componentType" : 5126,
            "count" : 2812,
            "max" : [
                360,
                360,
                252.433837890625
            ],
            "min" : [
                -360,
                -360,
                -172
            ],
            "type" : "VEC3"
        },
        {
            "bufferView" : 1,
            "componentType" : 5126,
            "count" : 2812,
            "type" : "VEC3"
        },
        {
            "bufferView" : 2,
            "componentType" : 5126,
            "count" : 2812,
            "type" : "VEC2"
        },
        {
            "bufferView" : 3,
            "componentType" : 5123,
            "count" : 11196,
            "type" : "SCALAR"
        },
        {
            "bufferView" : 4,
            "componentType" : 5126,
            "count" : 9216,
            "max" : [
                274.88623046875,
                96,
                299
            ],
            "min" : [
                -343.8891906738281,
                -274.88623046875,
                -140
            ],
            "type" : "VEC3"
        },
        {
            "bufferView" : 5,
            "componentType" : 5126,
            "count" : 9216,
            "type" : "VEC3"
        },
        {
            "bufferView" : 6,
            "componentType" : 5126,
            "count" : 9216,
            "type" : "VEC2"
        },
        {
            "bufferView" : 7,
            "componentType" : 5123,
            "count" : 28140,
            "type" : "SCALAR"
        },
        {
            "bufferView" : 8,
            "componentType" : 5126,
            "count" : 1080,
            "max" : [
                274.88623046875,
                274.88623046875,
                0.9999989867210388
            ],
            "min" : [
                -274.88623046875,
                -274.88623046875,
                -121
            ],
            "type" : "VEC3"
        },
        {
            "bufferView" : 9,
            "componentType" : 5126,
            "count" : 1080,
            "type" : "VEC3"
        },
        {
            "bufferView" : 10,
            "componentType" : 5126,
            "count" : 1080,
            "type" : "VEC2"
        },
        {
            "bufferView" : 11,
            "componentType" : 5123,
            "count" : 3492,
            "type" : "SCALAR"
        },
        {
            "bufferView" : 12,
            "componentType" : 5126,
            "count" : 1828,
            "max" : [
                345,
                70,
                47
            ],
            "min" : [
                -345,
                -70,
                -140
            ],
            "type" : "VEC3"
        },
        {
            "bufferView" : 13,
            "componentType" : 5126,
            "count" : 1828,
            "type" : "VEC3"
        },
        {
            "bufferView" : 14,
            "componentType" : 5126,
            "count" : 1828,
            "type" : "VEC2"
        },
        {
            "bufferView" : 15,
            "componentType" : 5123,
            "count" : 5148,
            "type" : "SCALAR"
        },
        {
            "bufferView" : 16,
            "componentType" : 5126,
            "count" : 504,
            "max" : [
                160,
                110,
                -140
            ],
            "min" : [
                -150,
                -110,
                -260
            ],
            "type" : "VEC3"
        },
        {
            "bufferView" : 17,
            "componentType" : 5126,
            "count" : 504,
            "type" : "VEC3"
        },
        {
            "bufferView" : 18,
            "componentType" : 5126,
            "count" : 504,
            "type" : "VEC2"
        },
        {
            "bufferView" : 19,
            "componentType" : 5123,
            "count" : 1620,
            "type" : "SCALAR"
        },
        {
            "bufferView" : 20,
            "componentType" : 5126,
            "count" : 5626,
            "max" : [
                344.23760986328125,
                92.25,
                65
            ],
            "min" : [
                -344.23760986328125,
                -92.25,
                -153.6999969482422
            ],
            "type" : "VEC3"
        },
        {
            "bufferView" : 21,
            "componentType" : 5126,
            "count" : 5626,
            "type" : "VEC3"
        },
        {
            "bufferView" : 22,
            "componentType" : 5126,
            "count" : 5626,
            "type" : "VEC2"
        },
        {
            "bufferView" : 23,
            "componentType" : 5123,
            "count" : 15360,
            "type" : "SCALAR"
        },
        {
            "bufferView" : 24,
            "componentType" : 5126,
            "count" : 576,
            "max" : [
                70,
                45,
                179
            ],
            "min" : [
                -70,
                -45,
                57
            ],
            "type" : "VEC3"
        },
        {
            "bufferView" : 25,
            "componentType" : 5126,
            "count" : 576,
            "type" : "VEC3"
        },
        {
            "bufferView" : 26,
            "componentType" : 5126,
            "count" : 576,
            "type" : "VEC2"
        },
        {
            "bufferView" : 27,
            "componentType" : 5123,
            "count" : 1848,
            "type" : "SCALAR"
        },
        {
            "bufferView" : 28,
            "componentType" : 5126,
            "count" : 509,
            "max" : [
                75,
                19.03922462463379,
                308.0389099121094
            ],
            "min" : [
                -53.977630615234375,
                -18.82176971435547,
                179
            ],
            "type" : "VEC3"
        },
        {
            "bufferView" : 29,
            "componentType" : 5126,
            "count" : 509,
            "type" : "VEC3"
        },
        {
            "bufferView" : 30,
            "componentType" : 5126,
            "count" : 509,
            "type" : "VEC2"
        },
        {
            "bufferView" : 31,
            "componentType" : 5123,
            "count" : 1554,
            "type" : "SCALAR"
        },
        {
            "bufferView" : 32,
            "componentType" : 5126,
            "count" : 624,
            "max" : [
                141,
                27.29798126220703,
                317
            ],
            "min" : [
                54,
                -27.29798126220703,
                261
            ],
            "type" : "VEC3"
        },
        {
            "bufferView" : 33,
            "componentType" : 5126,
            "count" : 624,
            "type" : "VEC3"
        },
        {
            "bufferView" : 34,
            "componentType" : 5126,
            "count" : 624,
            "type" : "VEC2"
        },
        {
            "bufferView" : 35,
            "componentType" : 5123,
            "count" : 1788,
            "type" : "SCALAR"
        },
        {
            "bufferView" : 36,
            "componentType" : 5126,
            "count" : 406,
            "max" : [
                179.433837890625,
                6.2367048263549805,
                264
            ],
            "min" : [
                95,
                -6.5,
                -195
            ],
            "type" : "VEC3"
        },
        {
            "bufferView" : 37,
            "componentType" : 5126,
            "count" : 406,
            "type" : "VEC3"
        },
        {
            "bufferView" : 38,
            "componentType" : 5126,
            "count" : 406,
            "type" : "VEC2"
        },
        {
            "bufferView" : 39,
            "componentType" : 5123,
            "count" : 1188,
            "type" : "SCALAR"
        },
        {
            "bufferView" : 40,
            "componentType" : 5126,
            "count" : 320,
            "max" : [
                50,
                50,
                62
            ],
            "min" : [
                -50,
                -50,
                47
            ],
            "type" : "VEC3"
        },
        {
            "bufferView" : 41,
            "componentType" : 5126,
            "count" : 320,
            "type" : "VEC3"
        },
        {
            "bufferView" : 42,
            "componentType" : 5126,
            "count" : 320,
            "type" : "VEC2"
        },
        {
            "bufferView" : 43,
            "componentType" : 5123,
            "count" : 912,
            "type" : "SCALAR"
        },
        {
            "bufferView" : 44,
            "componentType" : 5126,
            "count" : 166,
            "max" : [
                176.12677001953125,
                3.126765012741089,
                249.12677001953125
            ],
            "min" : [
                120,
                -3.174999952316284,
                -169.99998474121094
            ],
            "type" : "VEC3"
        },
        {
            "bufferView" : 45,
            "componentType" : 5126,
            "count" : 166,
            "type" : "VEC3"
        },
        {
            "bufferView" : 46,
            "componentType" : 5126,
            "count" : 166,
            "type" : "VEC2"
        },
        {
            "bufferView" : 47,
            "componentType" : 5123,
            "count" : 636,
            "type" : "SCALAR"
        }
    ],
    "bufferViews" : [
        {
            "buffer" : 0,
            "byteLength" : 33744,
            "byteOffset" : 0
        },
        {
            "buffer" : 0,
            "byteLength" : 33744,
            "byteOffset" : 33744
        },
        {
            "buffer" : 0,
            "byteLength" : 22496,
            "byteOffset" : 67488
        },
        {
            "buffer" : 0,
            "byteLength" : 22392,
            "byteOffset" : 89984
        },
        {
            "buffer" : 0,
            "byteLength" : 110592,
            "byteOffset" : 112376
        },
        {
            "buffer" : 0,
            "byteLength" : 110592,
            "byteOffset" : 222968
        },
        {
            "buffer" : 0,
            "byteLength" : 73728,
            "byteOffset" : 333560
        },
        {
            "buffer" : 0,
            "byteLength" : 56280,
            "byteOffset" : 407288
        },
        {
            "buffer" : 0,
            "byteLength" : 12960,
            "byteOffset" : 463568
        },
        {
            "buffer" : 0,
            "byteLength" : 12960,
            "byteOffset" : 476528
        },
        {
            "buffer" : 0,
            "byteLength" : 8640,
            "byteOffset" : 489488
        },
        {
            "buffer" : 0,
            "byteLength" : 6984,
            "byteOffset" : 498128
        },
        {
            "buffer" : 0,
            "byteLength" : 21936,
            "byteOffset" : 505112
        },
        {
            "buffer" : 0,
            "byteLength" : 21936,
            "byteOffset" : 527048
        },
        {
            "buffer" : 0,
            "byteLength" : 14624,
            "byteOffset" : 548984
        },
        {
            "buffer" : 0,
            "byteLength" : 10296,
            "byteOffset" : 563608
        },
        {
            "buffer" : 0,
            "byteLength" : 6048,
            "byteOffset" : 573904
        },
        {
            "buffer" : 0,
            "byteLength" : 6048,
            "byteOffset" : 579952
        },
        {
            "buffer" : 0,
            "byteLength" : 4032,
            "byteOffset" : 586000
        },
        {
            "buffer" : 0,
            "byteLength" : 3240,
            "byteOffset" : 590032
        },
        {
            "buffer" : 0,
            "byteLength" : 67512,
            "byteOffset" : 593272
        },
        {
            "buffer" : 0,
            "byteLength" : 67512,
            "byteOffset" : 660784
        },
        {
            "buffer" : 0,
            "byteLength" : 45008,
            "byteOffset" : 728296
        },
        {
            "buffer" : 0,
            "byteLength" : 30720,
            "byteOffset" : 773304
        },
        {
            "buffer" : 0,
            "byteLength" : 6912,
            "byteOffset" : 804024
        },
        {
            "buffer" : 0,
            "byteLength" : 6912,
            "byteOffset" : 810936
        },
        {
            "buffer" : 0,
            "byteLength" : 4608,
            "byteOffset" : 817848
        },
        {
            "buffer" : 0,
            "byteLength" : 3696,
            "byteOffset" : 822456
        },
        {
            "buffer" : 0,
            "byteLength" : 6108,
            "byteOffset" : 826152
        },
        {
            "buffer" : 0,
            "byteLength" : 6108,
            "byteOffset" : 832260
        },
        {
            "buffer" : 0,
            "byteLength" : 4072,
            "byteOffset" : 838368
        },
        {
            "buffer" : 0,
            "byteLength" : 3108,
            "byteOffset" : 842440
        },
        {
            "buffer" : 0,
            "byteLength" : 7488,
            "byteOffset" : 845548
        },
        {
            "buffer" : 0,
            "byteLength" : 7488,
            "byteOffset" : 853036
        },
        {
            "buffer" : 0,
            "byteLength" : 4992,
            "byteOffset" : 860524
        },
        {
            "buffer" : 0,
            "byteLength" : 3576,
            "byteOffset" : 865516
        },
        {
            "buffer" : 0,
            "byteLength" : 4872,
            "byteOffset" : 869092
        },
        {
            "buffer" : 0,
            "byteLength" : 4872,
            "byteOffset" : 873964
        },
        {
            "buffer" : 0,
            "byteLength" : 3248,
            "byteOffset" : 878836
        },
        {
            "buffer" : 0,
            "byteLength" : 2376,
            "byteOffset" : 882084
        },
        {
            "buffer" : 0,
            "byteLength" : 3840,
            "byteOffset" : 884460
        },
        {
            "buffer" : 0,
            "byteLength" : 3840,
            "byteOffset" : 888300
        },
        {
            "buffer" : 0,
            "byteLength" : 2560,
            "byteOffset" : 892140
        },
        {
            "buffer" : 0,
            "byteLength" : 1824,
            "byteOffset" : 894700
        },
        {
            "buffer" : 0,
            "byteLength" : 1992,
            "byteOffset" : 896524
        },
        {
            "buffer" : 0,
            "byteLength" : 1992,
            "byteOffset" : 898516
        },
        {
            "buffer" : 0,
            "byteLength" : 1328,
            "byteOffset" : 900508
        },
        {
            "buffer" : 0,
            "byteLength" : 1272,
            "byteOffset" : 901836
        }
    ],
    "buffers" : [
        {
            "byteLength" : 903108,
            "uri" : "data:application/octet-stream;base64,"
        }
    ]
}
